<svg xmlns="http://www.w3.org/2000/svg" width="16" height="15.999" viewBox="0 0 16 15.999">
  <g id="fi-rr-time-check" transform="translate(0 -0.001)">
    <path id="Path_21" data-name="Path 21" d="M19.891,16.227a.667.667,0,0,0-.943,0L15.2,19.979,13.4,18.211a.668.668,0,1,0-.957.933l1.829,1.8a1.251,1.251,0,0,0,.9.4H15.2a1.249,1.249,0,0,0,.89-.369l3.8-3.805A.667.667,0,0,0,19.891,16.227Z" transform="translate(-4.086 -5.344)" fill="#707070"/>
    <path id="Path_22" data-name="Path 22" d="M7.393,14.639A6.667,6.667,0,1,1,14.666,8c0,.2-.01.407-.027.607a.667.667,0,0,0,.6.726.659.659,0,0,0,.723-.6C15.988,8.487,16,8.245,16,8a8,8,0,1,0-8.727,7.967h.061a.667.667,0,0,0,.059-1.333Z" transform="translate(0 0)" fill="#707070"/>
    <path id="Path_23" data-name="Path 23" d="M10,6.667V9.724l-1.8,1.8a.667.667,0,1,0,.943.943l2-2a.667.667,0,0,0,.2-.471V6.667a.667.667,0,1,0-1.333,0Z" transform="translate(-2.667 -2)" fill="#707070"/>
  </g>
</svg>
