<svg id="fi-rr-globe" xmlns="http://www.w3.org/2000/svg" width="16" height="16" viewBox="0 0 16 16">
  <path id="fi-rr-globe-2" data-name="fi-rr-globe" d="M8,0a8,8,0,1,0,8,8A8,8,0,0,0,8,0Zm5.765,4.667H11.617a13.117,13.117,0,0,0-1.881-3.1,6.687,6.687,0,0,1,4.028,3.1ZM11,8a6.807,6.807,0,0,1-.317,2H5.317A6.807,6.807,0,0,1,5,8a6.807,6.807,0,0,1,.317-2h5.365A6.807,6.807,0,0,1,11,8ZM5.852,11.333h4.3A13.076,13.076,0,0,1,8,14.392a13.047,13.047,0,0,1-2.148-3.059Zm0-6.667A13.076,13.076,0,0,1,8,1.608a13.047,13.047,0,0,1,2.148,3.059Zm.415-3.1a13.117,13.117,0,0,0-1.884,3.1H2.235a6.687,6.687,0,0,1,4.031-3.1ZM1.641,6H3.933a8.011,8.011,0,0,0-.267,2,8.011,8.011,0,0,0,.267,2H1.641a6.661,6.661,0,0,1,0-4Zm.595,5.333H4.383a13.117,13.117,0,0,0,1.884,3.1,6.687,6.687,0,0,1-4.031-3.1Zm7.5,3.1a13.117,13.117,0,0,0,1.881-3.1h2.147a6.687,6.687,0,0,1-4.028,3.1ZM14.359,10H12.067a8.011,8.011,0,0,0,.267-2,8.011,8.011,0,0,0-.267-2h2.291a6.661,6.661,0,0,1,0,4Z" transform="translate(0 0)" fill="#005675"/>
</svg>
