<svg id="fi-rr-filter" xmlns="http://www.w3.org/2000/svg" width="36.655" height="40" viewBox="0 0 36.655 40">
  <path id="fi-rr-filter-2" data-name="fi-rr-filter" d="M22.665,40a1.667,1.667,0,0,1-1-.333l-6.667-5a1.667,1.667,0,0,1-.667-1.333V23.967L2.638,10.812A6.5,6.5,0,0,1,7.5,0H31.165A6.5,6.5,0,0,1,36.02,10.813L24.332,23.967V38.333A1.667,1.667,0,0,1,22.665,40Zm-5-7.5L21,35V23.333a1.667,1.667,0,0,1,.422-1.107L33.533,8.6a3.167,3.167,0,0,0-2.368-5.265H7.5A3.167,3.167,0,0,0,5.13,8.6l12.115,13.63a1.667,1.667,0,0,1,.42,1.107Z" transform="translate(-1.002)" fill="#fff"/>
</svg>
