<svg id="Group_744" data-name="Group 744" xmlns="http://www.w3.org/2000/svg" width="16" height="16" viewBox="0 0 16 16">
  <path id="Path_19" data-name="Path 19" d="M8,0a8,8,0,1,0,8,8A8,8,0,0,0,8,0ZM8,14.667A6.667,6.667,0,1,1,14.667,8,6.667,6.667,0,0,1,8,14.667Z" transform="translate(0 0)" fill="#eb4949"/>
  <path id="Path_20" data-name="Path 20" d="M11.333,10h-.667a.667.667,0,1,0,0,1.333h.667v4a.667.667,0,0,0,1.333,0v-4A1.333,1.333,0,0,0,11.333,10Z" transform="translate(-3.333 -3.333)" fill="#eb4949"/>
  <circle id="Ellipse_2" data-name="Ellipse 2" cx="1" cy="1" r="1" transform="translate(7 3.333)" fill="#eb4949"/>
</svg>
